<!-- icon666.com - MILLIONS vector ICONS FREE --><svg enable-background="new 0 0 520 520" viewBox="0 0 520 520" xmlns="http://www.w3.org/2000/svg"><g id="_x38_02_x2C__Explore_x2C__Find_x2C__Search_x2C__Bid"><g><g><path d="m156.654 205.1h-15.8v12.958h15.215c1.783 0 3.261-.585 4.431-1.755s1.755-2.703 1.755-4.598c0-1.839-.53-3.399-1.588-4.681-1.06-1.283-2.397-1.924-4.013-1.924z"></path><path d="m243.262 182.36h-8.443v35.279h8.443c5.059 0 8.983-1.91 11.579-5.058 2.881-3.496 4.054-8.057 4.054-12.665 0-2.619-.349-5.001-1.045-7.148-2.136-6.57-7.259-10.408-14.588-10.408z"></path><path d="m200 102.071c-53.999 0-97.929 43.931-97.929 97.929s43.931 97.929 97.929 97.929 97.929-43.931 97.929-97.929c0-53.999-43.931-97.929-97.929-97.929zm-25.372 119.08c-1.06 1.895-2.508 3.469-4.348 4.723-4.057 2.766-9.361 3.804-14.212 3.804h-28.926v-59.356h33.022c2.062 0 3.929.447 5.602 1.338 3.414 1.821 5.724 4.771 6.98 8.318 1.555 4.402 1.271 9.277-1.17 13.585-1.421 2.508-3.553 4.403-6.396 5.685 3.399 1.003 6.088 2.788 8.067 5.35 1.978 2.564 2.968 5.853 2.968 9.865.001 2.564-.529 4.794-1.587 6.688zm29.26 8.527h-13.711v-59.356h13.711zm68.969-29.761c0 12.682-5.767 23.087-17.431 27.63-3.651 1.421-7.706 2.132-12.164 2.132h-22.154v-59.356h22.154c4.904 0 9.196.781 12.875 2.341 7.364 3.125 12.332 8.572 14.839 15.759 1.253 3.594 1.881 7.426 1.881 11.494z"></path><path d="m425 170c16.542 0 30-13.458 30-30s-13.458-30-30-30-30 13.458-30 30 13.458 30 30 30z"></path><path d="m165 395c-11.028 0-20 8.972-20 20s8.972 20 20 20 20-8.972 20-20-8.972-20-20-20z"></path><path d="m337.886 316.673-22.153-22.154c-1.772-1.771-1.959-4.582-.437-6.572 43.905-57.407 38.418-139.293-12.765-190.477-56.666-56.665-148.388-56.675-205.062 0-56.536 56.535-56.536 148.525 0 205.062 53.072 53.072 134.867 55.295 190.477 12.765 1.989-1.522 4.8-1.336 6.572.437l22.154 22.153zm-137.886-8.744c-59.512 0-107.929-48.417-107.929-107.929s48.417-107.929 107.929-107.929 107.929 48.417 107.929 107.929-48.417 107.929-107.929 107.929z"></path><path d="m158.326 192.811c1.17-1.003 1.756-2.563 1.756-4.682 0-1.95-.516-3.455-1.547-4.514-1.032-1.058-2.271-1.588-3.72-1.588h-13.961v12.289h13.459c1.505-.001 2.843-.503 4.013-1.505z"></path><path d="m388.284 338.786-49.498 49.498 65.681 65.681c6.611 6.61 15.4 10.251 24.749 10.251s18.138-3.641 24.749-10.251c13.646-13.646 13.646-35.852 0-49.498zm41.716 111.214c-11.028 0-20-8.972-20-20s8.972-20 20-20 20 8.972 20 20-8.972 20-20 20z"></path><path d="m359.099 309.602c-6.216 6.216-43.242 43.242-49.497 49.497l22.114 22.115 49.498-49.498z"></path><circle cx="362.5" cy="62.5" r="7.5"></circle><circle cx="72.5" cy="57.5" r="7.5"></circle><circle cx="462.5" cy="222.5" r="7.5"></circle><circle cx="447.5" cy="322.5" r="7.5"></circle><circle cx="302.5" cy="447.5" r="7.5"></circle><circle cx="62.5" cy="377.5" r="7.5"></circle></g></g></g></svg>