<!-- icon666.com - MILLIONS vector ICONS FREE --><svg enable-background="new 0 0 520 520" viewBox="0 0 520 520" xmlns="http://www.w3.org/2000/svg"><g id="_x38_02_x2C__Explore_x2C__Find_x2C__Search_x2C__Bid"><g><path d="m165.182 199.64c2.843-1.281 4.974-3.177 6.396-5.685 1.421-2.508 2.132-5.183 2.132-8.025 0-3.807-1.345-7.576-3.679-10.408-1.17-1.422-2.592-2.577-4.263-3.47-1.673-.891-3.541-1.338-5.603-1.338h-33.021v59.356h28.926c7.209 0 15.053-2.26 18.56-8.527 1.058-1.894 1.588-4.123 1.588-6.688 0-4.013-.99-7.301-2.968-9.865-1.98-2.562-4.67-4.347-8.068-5.35zm-24.328-17.222h13.961c1.448 0 2.688.531 3.72 1.589 1.031 1.06 1.547 2.563 1.547 4.514 0 2.119-.586 3.679-1.756 4.683-1.17 1.003-2.508 1.504-4.013 1.504h-13.459zm19.646 34.276c-1.17 1.17-2.648 1.756-4.431 1.756h-15.215v-12.958h15.8c1.615 0 2.953.641 4.014 1.923 1.058 1.282 1.588 2.842 1.588 4.682 0 1.895-.586 3.427-1.756 4.597z"></path><path d="m190.177 170.714h13.711v59.356h-13.711z"></path><path d="m256.137 173.055c-3.678-1.56-7.971-2.341-12.874-2.341h-22.154v59.356h22.154c12.332 0 23.018-5.762 27.504-17.514 2.603-6.822 2.905-16.011.209-23.743-2.498-7.158-7.447-12.621-14.839-15.758zm1.714 34.318c-2.168 6.675-7.258 10.659-14.588 10.659h-8.443v-35.279h8.443c7.37 0 12.463 3.876 14.588 10.407 1.366 4.213 1.43 9.806 0 14.213z"></path><path d="m200 92.463c-59.512 0-107.929 48.417-107.929 107.929s48.417 107.928 107.929 107.928c59.513 0 107.93-48.416 107.93-107.928s-48.417-107.929-107.93-107.929zm0 205.857c-53.998 0-97.929-43.931-97.929-97.928 0-53.999 43.931-97.929 97.929-97.929s97.93 43.931 97.93 97.929-43.932 97.928-97.93 97.928z"></path><path d="m461.035 397.789-98.4-98.402c-1.953-1.955-5.122-1.95-7.07 0l-10.607 10.607-19.103-19.104c44.003-61.066 37.843-146.006-16.253-200.1-60.574-60.574-158.621-60.581-219.203 0-60.573 60.573-60.583 158.622 0 219.204 54.956 54.955 139.912 59.569 200.099 16.252l19.104 19.103-10.607 10.607c-1.955 1.953-1.95 5.122 0 7.07l98.401 98.402c8.499 8.5 19.8 13.181 31.819 13.181 24.87 0 45-20.127 45-45 .001-12.02-4.68-23.321-13.18-31.82zm-166.516-81.664c-1.772-1.772-4.583-1.958-6.572-.436-55.608 42.531-137.402 40.307-190.476-12.765-27.388-27.388-42.471-63.801-42.471-102.532 0-80.138 64.853-145 144.999-145 38.731 0 75.144 15.083 102.531 42.47 51.183 51.183 56.671 133.069 12.765 190.476-1.522 1.99-1.336 4.801.436 6.572l22.153 22.154c-.427.427-19.054 19.055-21.213 21.214zm64.581-6.132 22.114 22.114-49.497 49.498-22.115-22.115c11.266-11.266-9.911 9.911 49.498-49.497zm94.865 144.364c-13.68 13.678-35.816 13.679-49.498 0l-65.68-65.682 49.497-49.498 65.681 65.682c13.646 13.647 13.646 35.852 0 49.498z"></path><path d="m425 180.392c22.056 0 40-17.944 40-40s-17.944-40-40-40-40 17.944-40 40 17.944 40 40 40zm0-70c16.542 0 30 13.458 30 30s-13.458 30-30 30-30-13.458-30-30 13.458-30 30-30z"></path><path d="m165 385.393c-16.542 0-30 13.458-30 30s13.458 30 30 30 30-13.458 30-30-13.458-30-30-30zm0 50c-11.028 0-20-8.972-20-20s8.972-20 20-20 20 8.972 20 20-8.972 20-20 20z"></path><circle cx="362.5" cy="62.892" r="7.5"></circle><circle cx="72.5" cy="57.892" r="7.5"></circle><circle cx="462.5" cy="222.892" r="7.5"></circle><circle cx="447.5" cy="322.893" r="7.5"></circle><circle cx="302.5" cy="447.893" r="7.5"></circle><circle cx="62.5" cy="377.893" r="7.5"></circle><path d="m430 410.393c-11.028 0-20 8.972-20 20s8.972 20 20 20 20-8.972 20-20c0-11.029-8.972-20-20-20zm0 30c-5.514 0-10-4.486-10-10s4.486-10 10-10 10 4.486 10 10-4.486 10-10 10z"></path></g></g></svg>